# xmcd CD database file
#
# Track frame offsets:
#	150
#	23838
#	46463
#	70340
#
# Disc length: 1238 seconds
#
# Revision: 3
# Processed by: cddbd v1.5.1PL0 Copyright (c) Steve Scherf et al.
# Submitted via: CDex 1.51
#
DISCID=3004d404
DTITLE=Ram Jam World - この日差し届く場所
DYEAR=2002
DGENRE=Pop
TTITLE0=この日差し届く場所(Main Mix)
TTITLE1=この日差し届く場所(Reggae Ver.)
TTITLE2=この日差し届く場所(Main Mix Karaoke)
TTITLE3=この日差し届く場所(Reggae Ver. Karaoke)
EXTD=YEAR: 2002
EXTT0=
EXTT1=
EXTT2=
EXTT3=
PLAYORDER=
